<svg version="1.1" id="Layer_1" xmlns="http://www.w3.org/2000/svg" xmlns:xlink="http://www.w3.org/1999/xlink" x="0px" y="0px"
	 width="100%" viewBox="0 0 132 133" enable-background="new 0 0 132 133" xml:space="preserve">
<path fill="#FF307A" opacity="1.000000" stroke="none" 
	d="
M1.000000,51.000000 
	C1.000000,34.358505 1.000000,17.717012 1.000000,1.037760 
	C44.908344,1.037760 88.816727,1.037760 133.000000,1.037760 
	C133.000000,36.687092 133.000000,72.374886 132.564850,108.530548 
	C131.301178,108.979309 130.472351,108.934990 129.644165,108.945145 
	C123.455185,109.021034 117.873245,106.839546 114.170265,102.172218 
	C111.957550,99.383240 110.875656,96.188576 106.681671,96.632080 
	C112.206062,88.691566 114.009720,80.379936 112.066292,71.211327 
	C108.383804,53.838272 90.431458,43.012257 72.989540,47.735744 
	C55.942242,52.352367 45.901573,70.814041 51.486881,87.441185 
	C51.972553,88.887009 53.073196,91.142975 54.051670,91.232323 
	C58.529716,91.641235 63.066032,91.412064 68.268723,91.412064 
	C67.112358,89.639679 66.547752,88.825806 66.035065,87.980438 
	C61.382214,80.308388 62.143719,71.644371 68.010765,65.386902 
	C73.782555,59.231026 83.052628,57.848461 90.477226,62.036205 
	C97.558197,66.030136 101.168175,74.250992 99.269524,82.058571 
	C97.157265,90.744545 90.338669,96.140152 81.096291,96.198578 
	C68.430611,96.278641 55.762821,96.121956 43.098660,96.282249 
	C39.670059,96.325653 38.426613,95.299934 38.474068,91.763847 
	C38.641792,79.266594 38.472942,66.765251 38.556725,54.266308 
	C38.611248,46.131977 42.387703,40.153366 49.914333,37.042519 
	C57.456871,33.925091 64.253342,35.624615 70.144081,41.245392 
	C71.040222,42.100464 72.306862,43.278831 73.303696,43.190956 
	C77.171951,42.849960 81.000443,42.058037 85.060585,41.398762 
	C84.809097,40.610794 84.694794,39.960484 84.408257,39.397907 
	C78.455528,27.710472 65.654449,21.026567 52.385494,22.655491 
	C39.553432,24.230780 28.622837,33.828941 26.020395,46.613483 
	C24.936960,51.935871 25.185226,57.529350 24.509220,62.901726 
	C23.444548,62.187126 22.746458,61.498219 21.944366,60.966068 
	C18.466480,58.658642 14.937255,54.544910 11.466309,54.584240 
	C7.059055,54.634178 4.055605,53.486629 1.000000,51.000000 
z"/>
<path fill="#FF2F7D" opacity="1.000000" stroke="none" 
	d="
M1.000000,51.468658 
	C4.055605,53.486629 7.059055,54.634178 11.466309,54.584240 
	C14.937255,54.544910 18.466480,58.658642 21.944366,60.966068 
	C22.746458,61.498219 23.444548,62.187126 24.574856,63.366386 
	C24.959219,78.857246 24.959219,93.785622 24.959219,109.293854 
	C27.166777,109.293854 28.954853,109.293854 30.742928,109.293854 
	C46.686359,109.293861 62.635426,109.034721 78.571335,109.381027 
	C90.020515,109.629829 99.296455,105.792015 106.546486,96.975266 
	C110.875656,96.188576 111.957550,99.383240 114.170265,102.172218 
	C117.873245,106.839546 123.455185,109.021034 129.644165,108.945145 
	C130.472351,108.934990 131.301178,108.979309 132.564850,108.999207 
	C133.000000,117.318123 133.000000,125.636238 133.000000,133.977173 
	C89.095558,133.977173 45.191105,133.977173 1.000000,133.977173 
	C1.000000,106.646439 1.000000,79.291878 1.000000,51.468658 
z"/>
<path fill="#FFF9FB" opacity="1.000000" stroke="none" 
	d="
M106.681671,96.632080 
	C99.296455,105.792015 90.020515,109.629829 78.571335,109.381027 
	C62.635426,109.034721 46.686359,109.293861 30.742928,109.293854 
	C28.954853,109.293854 27.166777,109.293854 24.959219,109.293854 
	C24.959219,93.785622 24.959219,78.857246 24.893581,63.464214 
	C25.185226,57.529350 24.936960,51.935871 26.020395,46.613483 
	C28.622837,33.828941 39.553432,24.230780 52.385494,22.655491 
	C65.654449,21.026567 78.455528,27.710472 84.408257,39.397907 
	C84.694794,39.960484 84.809097,40.610794 85.060585,41.398762 
	C81.000443,42.058037 77.171951,42.849960 73.303696,43.190956 
	C72.306862,43.278831 71.040222,42.100464 70.144081,41.245392 
	C64.253342,35.624615 57.456871,33.925091 49.914333,37.042519 
	C42.387703,40.153366 38.611248,46.131977 38.556725,54.266308 
	C38.472942,66.765251 38.641792,79.266594 38.474068,91.763847 
	C38.426613,95.299934 39.670059,96.325653 43.098660,96.282249 
	C55.762821,96.121956 68.430611,96.278641 81.096291,96.198578 
	C90.338669,96.140152 97.157265,90.744545 99.269524,82.058571 
	C101.168175,74.250992 97.558197,66.030136 90.477226,62.036205 
	C83.052628,57.848461 73.782555,59.231026 68.010765,65.386902 
	C62.143719,71.644371 61.382214,80.308388 66.035065,87.980438 
	C66.547752,88.825806 67.112358,89.639679 68.268723,91.412064 
	C63.066032,91.412064 58.529716,91.641235 54.051670,91.232323 
	C53.073196,91.142975 51.972553,88.887009 51.486881,87.441185 
	C45.901573,70.814041 55.942242,52.352367 72.989540,47.735744 
	C90.431458,43.012257 108.383804,53.838272 112.066292,71.211327 
	C114.009720,80.379936 112.206062,88.691566 106.681671,96.632080 
z"/>
</svg>